FFmpeg version SVN-r25716, Copyright (c) 2000-2010 the FFmpeg developers  built on Nov 10 2010 12:23:18 with gcc 4.1.2 20080704 (Red Hat 4.1.2-48)  configuration: --enable-libmp3lame --enable-shared --disable-mmx --arch=x86_64  libavutil     50.33. 0 / 50.33. 0  libavcore      0.12. 1 /  0.12. 1  libavcodec    52.94. 4 / 52.94. 4  libavformat   52.84. 0 / 52.84. 0  libavdevice   52. 2. 2 / 52. 2. 2  libavfilter    1.59. 0 /  1.59. 0  libswscale     0.12. 0 /  0.12. 0Input #0, mov,mp4,m4a,3gp,3g2,mj2, from '/RAID10/data/converted_video_files/7807.mov':  Metadata:    major_brand     : qt      minor_version   : 512    compatible_brands: qt      encoder         : Lavf52.39.0    encoder-eng     : Lavf52.39.0  Duration: 00:00:07.90, start: 0.000000, bitrate: 1152 kb/s    Stream #0.0(eng): Video: mpeg4, yuv420p, 800x720 [PAR 1:1 DAR 10:9], 1150 kb/s, 30 fps, 30 tbr, 30 tbn, 30 tbc[buffer @ 0x1b67f80] w:800 h:720 pixfmt:yuv420pOutput #0, flv, to '/RAID10/data/converted_video_files/7807.flv':  Metadata:    encoder         : Lavf52.84.0    Stream #0.0(eng): Video: flv, yuv420p, 800x720 [PAR 1:1 DAR 10:9], q=2-31, 600 kb/s, 1k tbn, 24 tbcStream mapping:  Stream #0.0 -> #0.0Press [q] to stop encodingframe=   30 fps=  0 q=31.0 size=     284kB time=1.25 bitrate=1859.0kbits/s dup=0 drop=7    frame=   67 fps= 65 q=28.4 size=     413kB time=2.79 bitrate=1212.7kbits/s dup=0 drop=16    frame=  106 fps= 69 q=20.7 size=     527kB time=4.42 bitrate= 977.6kbits/s dup=0 drop=26    frame=  142 fps= 69 q=27.2 size=     655kB time=5.92 bitrate= 906.3kbits/s dup=0 drop=35    frame=  184 fps= 72 q=26.4 size=     795kB time=7.67 bitrate= 849.4kbits/s dup=0 drop=46    frame=  190 fps= 73 q=27.4 Lsize=     805kB time=7.92 bitrate= 832.5kbits/s dup=0 drop=47    video:801kB audio:0kB global headers:0kB muxing overhead 0.396051%